# xmcd CD database file
#
# Track frame offsets:
#	150
#	14904
#	41279
#	57022
#	70148
#	85896
#	98457
#	108658
#	123963
#	138984
#	167131
#	178761
#	196349
#	224690
#	244817
#	261430
#	279880
#	290121
#	301849
#	325902
#
# Disc length: 4594 seconds
#
# Revision: 1
# Processed by: cddbd v1.5.2PL0 Copyright (c) Steve Scherf et al.
# Submitted via: CDex 1.50
#
DISCID=2a11f014
DTITLE=Western Film Themes - The Essential Album
DYEAR=2006
DGENRE=Soundtrack
TTITLE0=The Big Country
TTITLE1=The Magnificent Seven
TTITLE2=The Cowboys
TTITLE3=The Good,The Bad and The Ugly
TTITLE4=A Fistful of Dollars
TTITLE5=She Wore A Yellow Ribbon
TTITLE6=Monte Walsh
TTITLE7=The Alamo
TTITLE8=How The West Was Won
TTITLE9=The Hallelujah Trail
TTITLE10=Dances With Wolves
TTITLE11=Once Upon A Time in The West
TTITLE12=Lonsome Dove
TTITLE13=The Outlaw Josey Wales
TTITLE14=The Proud Rebel
TTITLE15=Silverado
TTITLE16=The Sons Of Katie Elder
TTITLE17=Stagecoach
TTITLE18=Two Mules For Sister Sara 
TTITLE19=High Plains Drifter
EXTD=YEAR: 2006
EXTT0=
EXTT1=
EXTT2=
EXTT3=
EXTT4=
EXTT5=
EXTT6=
EXTT7=
EXTT8=
EXTT9=
EXTT10=
EXTT11=
EXTT12=
EXTT13=
EXTT14=
EXTT15=
EXTT16=
EXTT17=
EXTT18=
EXTT19=
PLAYORDER=
